<svg width="50" height="50" xmlns="http://www.w3.org/2000/svg">
 <style type="text/css">.st0{display:none;}
	.st1{display:inline;fill:#A0A0A0;}
	.st2{display:inline;}
	.st3{fill:#FFFFFF;}
	.st4{fill:#4B5B5C;}
	.st5{display:inline;fill-rule:evenodd;clip-rule:evenodd;fill:#615E62;}
	.st6{fill:#4e566f;}</style>

 <g>
  <title>background</title>
  <rect x="-1" y="-1" width="52" height="52" id="canvas_background" fill="none"/>
 </g>
 <g>
  <title>Layer 1</title>
  <g id="Layer_2" class="st0">
   <rect class="st1" width="50" height="50" id="svg_1"/>
  </g>
  <g id="notification" class="st0">
   <g class="st2" id="svg_2">
    <g id="svg_3">
     <path class="st3" d="m4.7,40.4c0.2,0.6 0.8,1 1.5,1l11.7,0c0.5,3.5 3.5,6.1 7.1,6.1s6.6,-2.7 7.1,-6.1l11.8,0l0,0c0.1,0 0.2,0 0.2,0c0.6,-0.1 1.1,-0.5 1.3,-1c0.2,-0.6 0.1,-1.3 -0.4,-1.7c0,0 -0.1,-0.1 -0.1,-0.1c-0.2,-0.2 -0.8,-0.9 -1.4,-2.4c-0.7,-1.7 -1.5,-4.7 -1.5,-9.2c0,-9 -3.4,-13.7 -6.2,-16.1c-1.9,-1.6 -3.8,-2.4 -5,-2.7c-0.1,-1.1 -0.3,-2.6 -1.3,-3.8c-0.7,-0.8 -2,-1.8 -4.4,-1.8c-2.3,0 -3.6,1 -4.3,1.8c-1,1.2 -1.3,2.8 -1.4,3.9c-1.3,0.4 -3.1,1.2 -5,2.7c-5.3,4.1 -6.4,11 -6.4,15.9c0,4.4 -0.8,7.3 -1.5,9c-0.7,1.9 -1.5,2.7 -1.5,2.7l0,0c-0.5,0.4 -0.6,1.1 -0.3,1.8zm20.3,3.9c-1.8,0 -3.3,-1.2 -3.8,-2.9l7.6,0c-0.5,1.6 -2,2.9 -3.8,2.9zm-13.7,-17.4c0,-14.5 9.5,-15.9 9.9,-15.9c0.4,-0.1 0.8,-0.3 1.1,-0.6c0.3,-0.3 0.4,-0.8 0.3,-1.2c-0.1,-0.5 -0.1,-2 0.6,-2.9c0.1,-0.2 0.6,-0.7 1.9,-0.7s1.7,0.5 1.9,0.7c0.7,0.8 0.6,2.3 0.6,2.7c-0.1,0.4 0,0.9 0.3,1.2c0.3,0.3 0.6,0.6 1.1,0.6c0,0 2.4,0.3 4.8,2.4c3.4,2.8 5.1,7.4 5.1,13.7c0,5.5 1,9 2.1,11.2l-31.9,0c1,-2.2 2.2,-5.8 2.2,-11.2z" id="svg_4"/>
    </g>
   </g>
  </g>
  <g id="App_Icon" class="st0">
   <g class="st2" id="svg_5">
    <path class="st3" d="m33.7,2.5l-17.4,0c-3.1,0 -5.6,2.6 -5.6,5.8l0,33.5c0,3.2 2.5,5.8 5.6,5.8l17.4,0c3.1,0 5.6,-2.6 5.6,-5.8l0,-33.5c0,-3.2 -2.5,-5.8 -5.6,-5.8zm3,39.2c0,1.7 -1.3,3.1 -3,3.1l-17.4,0c-1.7,0 -3,-1.4 -3,-3.1l0,-33.4c0,-1.7 1.3,-3.1 3,-3.1l17.4,0c1.7,0 3,1.4 3,3.1l0,33.4z" id="svg_6"/>
    <path class="st3" d="m25,37.3c1.3,0 2.4,1.1 2.4,2.5c0,1.4 -1.1,2.5 -2.4,2.5c-1.3,0 -2.4,-1.1 -2.4,-2.5c0,-1.4 1.1,-2.5 2.4,-2.5z" id="svg_7"/>
   </g>
  </g>
  <g id="Cart" class="st0">
   <g class="st2" id="svg_8">
    <path class="st3" d="m23.2,37.5c1.9,0 3.4,1.6 3.4,3.5c0,1.9 -1.5,3.5 -3.4,3.5c-1.9,0 -3.4,-1.6 -3.4,-3.5c0,-2 1.5,-3.5 3.4,-3.5z" id="svg_9"/>
    <path class="st3" d="m37.6,37.5c1.9,0 3.4,1.6 3.4,3.5c0,1.9 -1.5,3.5 -3.4,3.5c-1.9,0 -3.4,-1.6 -3.4,-3.5c-0.1,-2 1.5,-3.5 3.4,-3.5z" id="svg_10"/>
    <path class="st3" d="m4.2,9.2c3.2,0 6.3,0 9.5,0c-0.6,-0.5 -1.2,-0.9 -1.7,-1.4c2.4,8.5 4.8,17 7.1,25.4c0.2,0.8 0.9,1.4 1.7,1.4c6.4,0 12.7,0 19.1,0c0.8,0 1.5,-0.6 1.7,-1.4c1.9,-5.7 3.8,-11.5 5.7,-17.2c0.4,-1.1 -0.6,-2.3 -1.7,-2.3c-9.9,0 -19.8,0 -29.7,0c-2.3,0 -2.3,3.7 0,3.7c9.9,0 19.8,0 29.7,0c-0.6,-0.8 -1.2,-1.6 -1.7,-2.3c-1.9,5.7 -3.8,11.5 -5.7,17.2c0.6,-0.5 1.2,-0.9 1.7,-1.4c-6.4,0 -12.7,0 -19.1,0c0.6,0.5 1.2,0.9 1.7,1.4c-2.4,-8.5 -4.8,-17 -7.2,-25.4c-0.2,-0.8 -0.9,-1.4 -1.7,-1.4c-3.2,0 -6.3,0 -9.5,0c-2.2,0 -2.2,3.7 0.1,3.7l0,0z" id="svg_11"/>
   </g>
  </g>
  <g id="Layer_5" class="st0">
   <g class="st2" id="svg_12">
    <path class="st4" d="m28,44.6c0,1.9 -1.5,3.4 -3.4,3.4l-0.3,0c-1.9,0 -3.4,-1.5 -3.4,-3.4l0,-0.3c0,-1.9 1.5,-3.4 3.4,-3.4l0.3,0c1.9,0 3.4,1.5 3.4,3.4l0,0.3zm-1,-0.3c0,-1.3 -1,-2.3 -2.3,-2.3l-0.4,0c-1.3,0 -2.3,1 -2.3,2.3l0,0.4c0,1.3 1,2.3 2.3,2.3l0.4,0c1.3,0 2.3,-1 2.3,-2.3l0,-0.4z" id="svg_13"/>
    <path class="st4" d="m31,43.8c0,3.5 -2.8,6.2 -6.2,6.2l-0.5,0c-3.5,0 -6.2,-2.8 -6.2,-6.2l0,-0.5c0,-3.5 2.8,-6.2 6.2,-6.2l0.5,0c3.5,0 6.2,2.8 6.2,6.2l0,0.5zm-1,-0.6c0,-2.9 -2.3,-5.2 -5.2,-5.2l-0.6,0c-2.9,0 -5.2,2.3 -5.2,5.2l0,0.6c0,2.9 2.3,5.2 5.2,5.2l0.6,0c2.9,0 5.2,-2.3 5.2,-5.2l0,-0.6z" id="svg_14"/>
    <path class="st4" d="m15.4,49.9c-2.4,0 -4.3,-0.7 -5.7,-2.1c-2.4,-2.2 -2.5,-5.5 -2.5,-5.7c-0.4,-10.8 4.2,-15.6 4.7,-16.1c2.9,-4 6.5,-4 6.7,-4l4.1,0c1.5,0 2.6,0.5 3.4,1.4c1.2,1.4 1,3.4 1,3.5l-1.1,-0.1c0,0 0.2,-1.7 -0.7,-2.7c-0.6,-0.6 -1.4,-1 -2.6,-1l-4.2,0c-0.1,0 -3.3,0.1 -5.9,3.6l-0.1,0.2c0,0 -4.8,4.5 -4.5,15.2c0,0 0.1,3.1 2.2,5.1c1.3,1.2 3.1,1.9 5.4,1.9l7.4,0l0,1l-7.2,0c-0.1,-0.1 -0.3,-0.2 -0.4,-0.2z" id="svg_15"/>
    <rect x="26" y="26" class="st4" width="1" height="12" id="svg_16"/>
    <path class="st4" d="m15.4,49.5c-3,-5.5 -0.4,-10.1 -0.1,-10.5c3.2,-6.4 11.3,-4.9 11.4,-4.8l-0.2,1c0,0 -1.9,-0.4 -4.1,0c-2.9,0.5 -4.9,1.9 -6.1,4.3l0,0c-0.1,0.2 -2.7,4.4 0.1,9.5l-1,0.5z" id="svg_17"/>
    <path class="st4" d="m7,41l-0.8,0c-1,0 -1.4,-0.8 -1.4,-1.2l0,-2.3c0,-0.6 0.2,-1.1 0.5,-1.3c0.2,-0.2 0.5,-0.2 0.6,-0.2l1.1,0l0,1l-1.1,0c0,0 0.1,0.2 0.1,0.4l0,2.2c0,0 0,0.4 0.2,0.4l0.8,0l0,1z" id="svg_18"/>
    <polygon class="st4" points="10,29.2 7.9,27.6 10.7,23.6 12.9,25.5 12.2,26.3 10.9,25.2 9.4,27.4 10.6,28.4   " id="svg_19"/>
    <path class="st4" d="m47,49l-17,0l0,-2.1l4.3,-3.9l1.7,0l0.1,-8l0.9,0l0,-26.6c0.1,-1.9 -0.4,-3.2 -1.5,-4.1c-2.9,-2.5 -8.5,-1.5 -8.5,-1.4c-11.6,1.3 -16.6,12.6 -16.7,12.7c-2.6,5.6 0.4,8.5 0.4,8.5l-0.7,0.8c-0.1,-0.1 -3.6,-3.5 -0.6,-9.7c0,-0.1 5.3,-11.9 17.4,-13.3c0.2,0 6.1,-1.1 9.3,1.7c1.4,1.2 2,3.1 1.9,5.3l0,28.1l-0.9,0l-0.1,7l-2.3,0l-3.7,3.4l0,0.6l15,0l0,-1.2l-3.3,-2.8l-2.7,0l0,-7l-1.3,0l0,-28.9c0,0 0.4,-2.8 -1.6,-4.8c-2.1,-2.1 -6.3,-2.9 -12.1,-2.1c-0.1,0 -9.2,1.1 -15.8,11.5c0,0 -1.2,2.1 -1.7,4.8c-0.7,3.6 0,6.5 2.2,8.6l-0.8,0.7c-5.6,-5.7 -0.7,-14.6 -0.6,-14.7c6.9,-10.9 16.2,-12 16.6,-12.1c6.2,-0.8 10.7,0 13.1,2.5c2.2,2.3 2,5.1 2,5.5l0,27l1,0l0,8l2,0l4,3.3l0,2.7z" id="svg_20"/>
    <path class="st4" d="m25.4,28l-10.1,0l0.8,-1.1c1.6,-1.7 3.2,-2.6 4.8,-2.4c2.4,0.2 3.9,2.5 3.9,2.6l0.6,0.9zm-7.6,-2l5.4,0c-0.6,0 -1.4,-1 -2.4,-1.1c-1,-0.1 -2,1.1 -3,1.1z" id="svg_21"/>
    <rect x="38" y="7" class="st4" width="2" height="1" id="svg_22"/>
    <rect x="37.6" y="14.8" class="st4" width="1.6" height="1.1" id="svg_23"/>
    <rect x="37" y="35" class="st4" width="2" height="2" id="svg_24"/>
    <path class="st4" d="m38.4,45.3c-1.1,0 -2,-0.5 -2.5,-1l0.7,-0.8c0.2,0.2 1.8,1.6 3.4,0l0.7,0.8c-0.7,0.7 -1.6,1 -2.3,1z" id="svg_25"/>
    <rect x="30.2" y="48.2" class="st4" width="1.1" height="1.6" id="svg_26"/>
    <rect x="32.3" y="48.2" class="st4" width="1.1" height="1.6" id="svg_27"/>
    <rect x="34.5" y="48.2" class="st4" width="1.1" height="1.6" id="svg_28"/>
    <rect x="36.6" y="48.2" class="st4" width="1.1" height="1.6" id="svg_29"/>
    <rect x="38.7" y="48.2" class="st4" width="1.1" height="1.6" id="svg_30"/>
    <rect x="40.8" y="48.2" class="st4" width="1.1" height="1.6" id="svg_31"/>
    <rect x="42.4" y="48.2" class="st4" width="1.1" height="1.6" id="svg_32"/>
    <rect x="46.1" y="48.2" class="st4" width="1.1" height="1.6" id="svg_33"/>
    <rect x="44.5" y="48.2" class="st4" width="1.1" height="1.6" id="svg_34"/>
   </g>
  </g>
  <g id="Layer_6" class="st0">
   <path class="st5" d="m2.6,25.2c0.1,0.3 0.4,0.4 0.7,0.2c0.2,-0.1 0.5,-0.4 0.7,-0.6c0.6,-0.5 1.4,-0.9 2,-1.4c0.6,-0.5 1.2,-0.8 1.8,-1.2c1.1,-0.7 2.2,-1.4 3.4,-1.9c1.2,-0.5 2.4,-0.9 3.7,-1.2c0.9,-0.2 1.9,-0.3 2.9,-0.4c0.9,-0.1 1.7,-0.1 2.6,-0.2c0.8,-0.1 1.5,-0.2 2.3,-0.2c0.8,0 1.5,0.1 2.3,0.2c0.9,0.1 1.9,0.2 2.8,0.4c1.8,0.4 3.6,0.9 5.3,1.6c1.6,0.6 3.1,1.4 4.6,2.3c1.7,1 3.1,2.4 4.5,3.8c0.6,0.5 1.1,1.1 1.6,1.7c0.1,0.1 1.2,1.8 1.1,1.9c0,0 -0.1,0.1 -0.1,0.1c-0.1,0 -0.1,0 -0.2,-0.1c-1,-0.6 -2.1,-1.1 -3.1,-1.7c-1,-0.6 -2,-1.2 -3.2,-1.2c-0.2,0 -0.5,0 -0.7,0.1c-0.2,0.1 -0.5,0.7 0.2,0.8c0.6,0.1 1.1,0.2 1.7,0.4c0.4,0.2 0.8,0.5 1.3,0.7c0.4,0.2 0.9,0.4 1.3,0.6c1.2,0.5 2.1,1 3.4,1.9c0.3,0.2 0.8,0.3 1.4,0.8c0.6,0.5 1.3,-0.1 0.6,-1.5c-0.2,-0.4 -0.3,-0.8 -0.3,-1.2c-0.2,-1.1 -1.1,-4.1 -1.2,-4.7c-0.2,-0.9 -0.3,-1.6 -0.5,-2.6c-0.1,-0.3 -0.2,-0.9 -0.4,-1c-0.4,-0.3 -0.6,-0.2 -0.9,0c-0.5,0.3 -0.2,0.7 -0.1,1.1c0.1,0.4 0.2,1.2 0.3,1.7c0.1,0.6 0.2,1.2 0.4,1.7c0.1,0.5 0.6,1.8 0.6,2.3c-0.1,-0.1 -0.6,-0.9 -0.7,-1c-0.8,-0.8 -1.5,-1.6 -2.3,-2.4c-2.5,-2.4 -5.6,-4 -8.7,-5.4c-0.5,-0.2 -1,-0.4 -1.6,-0.6c-3.4,-0.9 -7.1,-1.7 -10.7,-1.5c-1,0.1 -2.1,0 -3.1,0.1c-2.6,0.3 -5.3,0.8 -7.7,2c-1.4,0.7 -2.8,1.6 -4.1,2.5c-0.9,0.6 -1.8,1.1 -2.7,1.8c-0.5,0.1 -0.8,0.3 -1,0.5c-0.3,0.2 -0.4,0.5 -0.2,0.8z" id="svg_35"/>
  </g>
  <g id="Layer_7" class="st0">
   <g id="Layer_2_1_" class="st2">
    <g id="svg_36">
     <g id="svg_37">
      <path class="st6" d="m25,2.5c-12.4,0 -22.5,10.1 -22.5,22.5s10.1,22.5 22.5,22.5s22.5,-10.1 22.5,-22.5s-10.1,-22.5 -22.5,-22.5zm0.9,41.4l0,-2.6c0,-0.5 -0.4,-0.9 -0.9,-0.9c-0.5,0 -0.9,0.4 -0.9,0.9l0,2.6c-9.7,-0.5 -17.5,-8.3 -18,-18l2.6,0c0.5,0 0.9,-0.4 0.9,-0.9c0,-0.5 -0.4,-0.9 -0.9,-0.9l-2.6,0c0.5,-9.7 8.3,-17.5 18,-18l0,2.6c0,0.5 0.4,0.9 0.9,0.9c0.5,0 0.9,-0.4 0.9,-0.9l0,-2.6c9.7,0.5 17.5,8.3 18,18l-2.6,0c-0.5,0 -0.9,0.4 -0.9,0.9c0,0.5 0.4,0.9 0.9,0.9l2.6,0c-0.5,9.7 -8.3,17.5 -18,18zm0.9,-19.6l0,-7.9c0,-1 -0.8,-1.8 -1.8,-1.8s-1.8,0.8 -1.8,1.8l0,8.6l0,0c0,0.1 0,0.2 0,0.4c0,0.1 0,0.1 0,0.2c0,0.1 0,0.1 0.1,0.2s0.1,0.1 0.1,0.2c0,0 0,0.1 0.1,0.1c0.1,0.1 0.1,0.2 0.2,0.3l10.2,10.2c0.4,0.4 0.8,0.5 1.3,0.5s0.9,-0.2 1.3,-0.5c0.7,-0.7 0.7,-1.8 0,-2.5l-9.7,-9.8z" id="svg_38"/>
     </g>
    </g>
   </g>
  </g>
  <g id="Layer_8">
   <g id="svg_39">
    <path class="st6" d="m43.1,31.7c-1,-0.6 -2.4,-0.2 -2.9,0.8c-2.2,3.9 -7.6,8.4 -15.2,8.4c-7.7,0 -13,-4.5 -15.2,-8.4c-0.6,-1 -1.9,-1.4 -2.9,-0.8c-1,0.6 -1.4,1.9 -0.8,3c1,1.8 6.7,10.5 19,10.5c12.3,0 18,-8.8 19,-10.5c0.4,-1 0,-2.4 -1,-3z" id="svg_40"/>
    <path class="st6" d="m47.1,5.8c-4.9,-1 -10,-1.5 -16.4,0.1c-1.8,0.5 -4,0.9 -5.8,0.9c-1.1,0 -2.2,-0.3 -3.2,-0.5c-6.3,-1.5 -12,-2.1 -18.8,-0.8c-0.6,0.1 -0.1,3.8 0,4.7c0.3,7.4 2.7,10.7 9.1,10.7c7.2,0 10.8,-7.1 11.3,-9.8c0.3,-1.4 1,-1.6 1.8,-1.6c1.4,0 1.6,1 1.8,1.7c2.9,7.5 4.7,9.2 10.9,9.7c9.4,0.8 8.3,-6.2 9.6,-10.3c0.1,-0.7 0.3,-4.6 -0.3,-4.8z" id="svg_41"/>
   </g>
  </g>
 </g>
</svg>