<svg width="300" height="300" xmlns="http://www.w3.org/2000/svg">
 <style type="text/css">.st0{fill:#4e566f;}</style>

 <g>
  <title>background</title>
  <rect x="-1" y="-1" width="381.750652" height="381.750652" id="canvas_background" fill="none"/>
 </g>
 <g>
  <title>Layer 1</title>
  <g stroke="null" id="svg_1">
   <g stroke="null" id="svg_2">
    <path stroke="null" class="st0" d="m260.48655,201.99994c-5.339102,-13.9 -15.211414,-25.7 -27.803652,-34c-9.267884,-5.9 -19.543148,-9.6 -30.42284,-10.9c-0.705166,-5.3 -1.611808,-10.6 -3.626568,-15.5c-3.02214,-7.6 -7.656076,-14.5 -13.599618,-20.1c-6.245744,-6.3 -13.901832,-10.9 -21.860122,-14.5c9.267884,-11.5 13.901832,-26.4 13.599618,-40.9c-0.302214,-10.6 -3.324354,-20.8 -8.562718,-30c-5.94353,-9.9 -14.606986,-18.1 -24.88225,-23.8c-8.260504,-4.6 -18.233554,-6.9 -27.803652,-7.3l-3.425092,0c-11.584858,0.3 -23.169716,4 -32.4376,10.2c-11.584858,7.6 -20.852742,19.5 -25.184464,32.7c-3.928782,11.2 -4.331734,23.8 -1.309594,35.6c2.316974,8.6 6.245744,16.5 11.584858,23.4c-7.656076,3.3 -14.606986,7.6 -20.550528,13.2c-5.641316,5 -9.97305,11.2 -13.297404,17.8c-3.626568,7.6 -5.641316,16.2 -5.641316,24.7l0,18.1c0.302214,10.2 3.02214,20.5 8.96567,28.7c5.641316,7.6 13.297404,13.5 21.557908,17.8c9.267884,4.6 19.543148,7.3 29.818412,8.9c12.290024,2 24.88225,2.3 37.474488,2c1.611808,10.6 5.339102,20.8 11.282644,29.7c6.95091,10.6 16.92396,19.1 28.105866,24.7c9.267884,4.6 19.543148,6.9 29.818412,7.3l3.626568,0c9.267884,-0.3 18.535768,-2.3 26.796272,-5.9c14.606986,-6.3 26.796272,-17.8 34.452348,-32c4.93615,-9.9 7.95829,-20.8 8.260504,-31.7l0,-4c-0.302214,-8 -2.01476,-16.3 -4.93615,-24.2zm-133.880633,2c-2.316974,6.3 -3.626568,12.5 -4.331734,19.1c-12.894452,0.3 -25.788892,0 -38.38113,-2.3c-8.96567,-1.6 -17.528388,-4.3 -25.486678,-8.9c-3.928782,-2.6 -7.656076,-5.6 -10.577478,-9.2c-3.02214,-4 -5.339102,-8.6 -6.245744,-13.2c-1.309594,-5.9 -1.00738,-12.2 -1.00738,-18.5c0,-4.9 0,-9.6 0.705166,-14.5c1.00738,-6.9 3.928782,-13.9 8.260504,-19.5c6.95091,-8.6 16.92396,-14.5 27.199224,-18.1c4.331734,3 8.96567,5.6 13.901832,7.6c2.316974,0.7 4.93615,0.3 6.95091,-1c2.619188,-2 3.928782,-5.6 3.02214,-8.6c-0.705166,-2.3 -2.316974,-4 -4.633948,-5c-8.562718,-3.3 -15.91658,-9.6 -21.154956,-17.2c-4.93615,-6.9 -7.95829,-15.5 -8.260504,-24.1c-0.705166,-8.6 1.309594,-17.2 5.339102,-24.7c4.331734,-8.3 10.98043,-14.9 18.837982,-19.5s17.226174,-6.6 26.796272,-6.6c8.562718,0.7 17.226174,3.6 24.479298,8.9c9.97305,7.3 17.226174,18.5 19.240934,30.7c2.01476,10.2 0,21.4 -4.93615,30.7c-5.339102,9.9 -14.204034,17.8 -24.479298,21.8c-3.626568,1.3 -5.641316,5.9 -4.331734,9.6c1.309594,4 5.641316,6.3 9.570098,5c4.93615,-2 9.97305,-4.6 14.204034,-7.9c9.570098,3.3 18.837982,8.6 25.788892,16.5c5.641316,6.3 8.96567,13.9 9.97305,22.1c-10.577478,1.3 -20.852742,4.6 -30.120626,10.2c-14.103308,8.5 -24.680774,21.4 -30.322102,36.6l0.000024,0zm120.583229,40.9c-2.316974,8.6 -6.95091,16.5 -12.894452,22.8c-6.648696,7.3 -15.614366,12.9 -25.184464,15.5c-10.98043,3 -22.867502,2.6 -33.747182,-1c-10.275264,-3.3 -19.543148,-10.2 -26.191844,-18.8c-5.339102,-6.9 -8.96567,-14.5 -10.577478,-22.8c-2.01476,-10.2 -1.309594,-21.1 2.316974,-31c3.324354,-9.9 9.97305,-18.5 18.233554,-25.1c8.96567,-6.6 19.543148,-10.9 30.42284,-11.5c10.275264,-1 20.852742,1 29.113246,5.6c11.887072,6.3 21.860122,16.8 26.796272,29.4c4.734674,11.8 5.339102,25 1.712546,36.9l-0.000012,0zm-18.233554,-40.6c-1.611808,-1.6 -4.331734,-2 -6.245744,-0.7c-0.705166,0.7 -1.611808,1.7 -2.619188,3c-13.297404,13.5 -26.796272,27.1 -40.39589,40.6c-6.245744,-6.6 -12.894452,-12.9 -19.240934,-19.5c-1.611808,-2 -4.633948,-2 -6.648696,-0.7c-2.01476,1.3 -2.619188,4 -2.01476,5.9c0.705166,1.3 1.611808,2.3 2.619188,3.3c6.95091,6.6 13.599618,13.5 20.550528,20.5c0.705166,1 1.611808,2 3.02214,2.3c2.01476,0.7 4.331734,0 5.641316,-1.7c14.9092,-15.2 30.120626,-30.4 45.33204,-45.5c2.01476,-1.9 2.316974,-5.5 0,-7.5z" id="svg_3"/>
   </g>
  </g>
  <polyline fill="none" stroke="#000" stroke-width="1.5" points="85.5,15.599999999999994 85.5,15.599999999999994 " id="svg_4" stroke-linecap="round"/>
  <polyline fill="none" stroke="#000" stroke-width="1.5" points="62.5,88.6 62.5,88.6 " id="svg_5" stroke-linecap="round"/>
  <polyline fill="none" stroke-width="1.5" points="62.5,126.5999984741211 62.5,126.5999984741211 " id="svg_6" stroke-linecap="round" stroke="#000"/>
 </g>
</svg>